<svg width="94" height="24" viewBox="0 0 94 24" fill="none" xmlns="http://www.w3.org/2000/svg">
<rect width="94" height="24" fill="white"/>
<path d="M9 1L5 3L14 8.5C14 8.5 15.5 8.5 16.5 8C17.5 7.5 18 6.5 18 6.5L9 1Z" stroke="black" stroke-linejoin="round"/>
<path d="M5 17V3L14 8.5C14 8.5 15.5 8.5 16.5 8C17.5 7.5 18 6.5 18 6.5V20.5C18 20.5 17.5 21.5 16.5 22C15.5 22.5 14 22.5 14 22.5L5 17Z" fill="#2E2E2E" stroke="black" stroke-linejoin="round"/>
<path d="M14 8.5L5 3V17L14 22.5V8.5Z" fill="#616161"/>
<path d="M14 22.5L5 17V3L14 8.5C14 8.5 15 8.5 16.5 8C18 7.5 18 6.5 18 6.5" stroke="black" stroke-linejoin="round"/>
<path d="M23.528 13.096C23.528 12.64 23.608 12.228 23.768 11.86C23.936 11.484 24.16 11.164 24.44 10.9C24.72 10.636 25.052 10.432 25.436 10.288C25.82 10.144 26.228 10.072 26.66 10.072C27.092 10.072 27.5 10.144 27.884 10.288C28.268 10.432 28.6 10.636 28.88 10.9C29.16 11.164 29.38 11.484 29.54 11.86C29.708 12.228 29.792 12.64 29.792 13.096C29.792 13.552 29.708 13.968 29.54 14.344C29.38 14.72 29.16 15.044 28.88 15.316C28.6 15.58 28.268 15.788 27.884 15.94C27.5 16.092 27.092 16.168 26.66 16.168C26.228 16.168 25.82 16.092 25.436 15.94C25.052 15.788 24.72 15.58 24.44 15.316C24.16 15.044 23.936 14.72 23.768 14.344C23.608 13.968 23.528 13.552 23.528 13.096ZM24.992 13.096C24.992 13.32 25.024 13.544 25.088 13.768C25.16 13.992 25.264 14.192 25.4 14.368C25.536 14.544 25.708 14.688 25.916 14.8C26.124 14.912 26.372 14.968 26.66 14.968C26.948 14.968 27.196 14.912 27.404 14.8C27.612 14.688 27.784 14.544 27.92 14.368C28.056 14.192 28.156 13.992 28.22 13.768C28.292 13.544 28.328 13.32 28.328 13.096C28.328 12.872 28.292 12.652 28.22 12.436C28.156 12.212 28.056 12.012 27.92 11.836C27.784 11.66 27.612 11.52 27.404 11.416C27.196 11.304 26.948 11.248 26.66 11.248C26.372 11.248 26.124 11.304 25.916 11.416C25.708 11.52 25.536 11.66 25.4 11.836C25.264 12.012 25.16 12.212 25.088 12.436C25.024 12.652 24.992 12.872 24.992 13.096ZM33.2882 10.24V11.044H33.3242C33.3962 10.932 33.4882 10.82 33.6002 10.708C33.7202 10.588 33.8642 10.484 34.0322 10.396C34.2002 10.3 34.3882 10.224 34.5962 10.168C34.8122 10.104 35.0522 10.072 35.3162 10.072C35.7242 10.072 36.1002 10.152 36.4442 10.312C36.7882 10.464 37.0842 10.676 37.3322 10.948C37.5802 11.22 37.7722 11.54 37.9082 11.908C38.0442 12.276 38.1122 12.672 38.1122 13.096C38.1122 13.52 38.0442 13.92 37.9082 14.296C37.7802 14.664 37.5922 14.988 37.3442 15.268C37.1042 15.54 36.8082 15.76 36.4562 15.928C36.1122 16.088 35.7202 16.168 35.2802 16.168C34.8722 16.168 34.4962 16.084 34.1522 15.916C33.8162 15.748 33.5562 15.52 33.3722 15.232H33.3482V18.88H31.9082V10.24H33.2882ZM36.6482 13.096C36.6482 12.872 36.6122 12.652 36.5402 12.436C36.4762 12.212 36.3762 12.012 36.2402 11.836C36.1042 11.66 35.9322 11.52 35.7242 11.416C35.5162 11.304 35.2722 11.248 34.9922 11.248C34.7282 11.248 34.4922 11.304 34.2842 11.416C34.0762 11.528 33.8962 11.672 33.7442 11.848C33.6002 12.024 33.4882 12.224 33.4082 12.448C33.3362 12.672 33.3002 12.896 33.3002 13.12C33.3002 13.344 33.3362 13.568 33.4082 13.792C33.4882 14.008 33.6002 14.204 33.7442 14.38C33.8962 14.556 34.0762 14.7 34.2842 14.812C34.4922 14.916 34.7282 14.968 34.9922 14.968C35.2722 14.968 35.5162 14.912 35.7242 14.8C35.9322 14.688 36.1042 14.544 36.2402 14.368C36.3762 14.192 36.4762 13.992 36.5402 13.768C36.6122 13.544 36.6482 13.32 36.6482 13.096ZM44.278 12.544C44.278 12.36 44.25 12.184 44.194 12.016C44.146 11.848 44.066 11.7 43.954 11.572C43.842 11.444 43.698 11.344 43.522 11.272C43.354 11.192 43.154 11.152 42.922 11.152C42.49 11.152 42.122 11.284 41.818 11.548C41.522 11.804 41.358 12.136 41.326 12.544H44.278ZM45.718 13.192C45.718 13.256 45.718 13.32 45.718 13.384C45.718 13.448 45.714 13.512 45.706 13.576H41.326C41.342 13.784 41.394 13.976 41.482 14.152C41.578 14.32 41.702 14.468 41.854 14.596C42.006 14.716 42.178 14.812 42.37 14.884C42.562 14.956 42.762 14.992 42.97 14.992C43.33 14.992 43.634 14.928 43.882 14.8C44.13 14.664 44.334 14.48 44.494 14.248L45.454 15.016C44.886 15.784 44.062 16.168 42.982 16.168C42.534 16.168 42.122 16.1 41.746 15.964C41.37 15.82 41.042 15.62 40.762 15.364C40.49 15.108 40.274 14.796 40.114 14.428C39.962 14.052 39.886 13.628 39.886 13.156C39.886 12.692 39.962 12.272 40.114 11.896C40.274 11.512 40.49 11.188 40.762 10.924C41.034 10.652 41.354 10.444 41.722 10.3C42.098 10.148 42.502 10.072 42.934 10.072C43.334 10.072 43.702 10.14 44.038 10.276C44.382 10.404 44.678 10.6 44.926 10.864C45.174 11.12 45.366 11.444 45.502 11.836C45.646 12.22 45.718 12.672 45.718 13.192ZM47.8326 10.24H49.2006V11.164H49.2246C49.3526 10.876 49.5726 10.624 49.8846 10.408C50.2046 10.184 50.5806 10.072 51.0126 10.072C51.3886 10.072 51.7086 10.14 51.9726 10.276C52.2446 10.404 52.4646 10.576 52.6326 10.792C52.8086 11.008 52.9366 11.256 53.0166 11.536C53.0966 11.816 53.1366 12.104 53.1366 12.4V16H51.6966V12.808C51.6966 12.64 51.6846 12.464 51.6606 12.28C51.6366 12.096 51.5846 11.932 51.5046 11.788C51.4246 11.636 51.3126 11.512 51.1686 11.416C51.0326 11.32 50.8486 11.272 50.6166 11.272C50.3846 11.272 50.1846 11.32 50.0166 11.416C49.8486 11.504 49.7086 11.62 49.5966 11.764C49.4926 11.908 49.4126 12.076 49.3566 12.268C49.3006 12.452 49.2726 12.64 49.2726 12.832V16H47.8326V10.24ZM59.473 11.836C59.361 11.676 59.193 11.544 58.969 11.44C58.745 11.328 58.517 11.272 58.285 11.272C58.021 11.272 57.789 11.328 57.589 11.44C57.389 11.544 57.221 11.684 57.085 11.86C56.957 12.036 56.861 12.236 56.797 12.46C56.733 12.676 56.701 12.896 56.701 13.12C56.701 13.344 56.733 13.568 56.797 13.792C56.869 14.008 56.973 14.204 57.109 14.38C57.245 14.556 57.413 14.7 57.613 14.812C57.821 14.916 58.061 14.968 58.333 14.968C58.557 14.968 58.781 14.924 59.005 14.836C59.229 14.748 59.409 14.62 59.545 14.452L60.445 15.364C60.205 15.62 59.897 15.82 59.521 15.964C59.153 16.1 58.753 16.168 58.321 16.168C57.897 16.168 57.493 16.1 57.109 15.964C56.733 15.828 56.401 15.628 56.113 15.364C55.833 15.1 55.609 14.78 55.441 14.404C55.281 14.028 55.201 13.6 55.201 13.12C55.201 12.656 55.281 12.236 55.441 11.86C55.609 11.484 55.833 11.164 56.113 10.9C56.393 10.636 56.717 10.432 57.085 10.288C57.461 10.144 57.861 10.072 58.285 10.072C58.709 10.072 59.117 10.152 59.509 10.312C59.909 10.472 60.225 10.692 60.457 10.972L59.473 11.836ZM61.7803 13.096C61.7803 12.64 61.8603 12.228 62.0203 11.86C62.1883 11.484 62.4123 11.164 62.6923 10.9C62.9723 10.636 63.3043 10.432 63.6883 10.288C64.0723 10.144 64.4803 10.072 64.9123 10.072C65.3443 10.072 65.7523 10.144 66.1363 10.288C66.5203 10.432 66.8523 10.636 67.1323 10.9C67.4123 11.164 67.6323 11.484 67.7923 11.86C67.9603 12.228 68.0443 12.64 68.0443 13.096C68.0443 13.552 67.9603 13.968 67.7923 14.344C67.6323 14.72 67.4123 15.044 67.1323 15.316C66.8523 15.58 66.5203 15.788 66.1363 15.94C65.7523 16.092 65.3443 16.168 64.9123 16.168C64.4803 16.168 64.0723 16.092 63.6883 15.94C63.3043 15.788 62.9723 15.58 62.6923 15.316C62.4123 15.044 62.1883 14.72 62.0203 14.344C61.8603 13.968 61.7803 13.552 61.7803 13.096ZM63.2443 13.096C63.2443 13.32 63.2763 13.544 63.3403 13.768C63.4123 13.992 63.5163 14.192 63.6523 14.368C63.7883 14.544 63.9603 14.688 64.1683 14.8C64.3763 14.912 64.6243 14.968 64.9123 14.968C65.2003 14.968 65.4483 14.912 65.6563 14.8C65.8643 14.688 66.0363 14.544 66.1723 14.368C66.3083 14.192 66.4083 13.992 66.4723 13.768C66.5443 13.544 66.5803 13.32 66.5803 13.096C66.5803 12.872 66.5443 12.652 66.4723 12.436C66.4083 12.212 66.3083 12.012 66.1723 11.836C66.0363 11.66 65.8643 11.52 65.6563 11.416C65.4483 11.304 65.2003 11.248 64.9123 11.248C64.6243 11.248 64.3763 11.304 64.1683 11.416C63.9603 11.52 63.7883 11.66 63.6523 11.836C63.5163 12.012 63.4123 12.212 63.3403 12.436C63.2763 12.652 63.2443 12.872 63.2443 13.096ZM69.2966 10.24H70.8686L72.3806 14.44H72.4046L73.9286 10.24H75.4526L73.1606 16H71.6246L69.2966 10.24ZM81.0889 12.544C81.0889 12.36 81.0609 12.184 81.0049 12.016C80.9569 11.848 80.8769 11.7 80.7649 11.572C80.6529 11.444 80.5089 11.344 80.3329 11.272C80.1649 11.192 79.9649 11.152 79.7329 11.152C79.3009 11.152 78.9329 11.284 78.6289 11.548C78.3329 11.804 78.1689 12.136 78.1369 12.544H81.0889ZM82.5289 13.192C82.5289 13.256 82.5289 13.32 82.5289 13.384C82.5289 13.448 82.5249 13.512 82.5169 13.576H78.1369C78.1529 13.784 78.2049 13.976 78.2929 14.152C78.3889 14.32 78.5129 14.468 78.6649 14.596C78.8169 14.716 78.9889 14.812 79.1809 14.884C79.3729 14.956 79.5729 14.992 79.7809 14.992C80.1409 14.992 80.4449 14.928 80.6929 14.8C80.9409 14.664 81.1449 14.48 81.3049 14.248L82.2649 15.016C81.6969 15.784 80.8729 16.168 79.7929 16.168C79.3449 16.168 78.9329 16.1 78.5569 15.964C78.1809 15.82 77.8529 15.62 77.5729 15.364C77.3009 15.108 77.0849 14.796 76.9249 14.428C76.7729 14.052 76.6969 13.628 76.6969 13.156C76.6969 12.692 76.7729 12.272 76.9249 11.896C77.0849 11.512 77.3009 11.188 77.5729 10.924C77.8449 10.652 78.1649 10.444 78.5329 10.3C78.9089 10.148 79.3129 10.072 79.7449 10.072C80.1449 10.072 80.5129 10.14 80.8489 10.276C81.1929 10.404 81.4889 10.6 81.7369 10.864C81.9849 11.12 82.1769 11.444 82.3129 11.836C82.4569 12.22 82.5289 12.672 82.5289 13.192ZM84.6435 10.24H86.0235V11.2H86.0475C86.2075 10.864 86.4315 10.592 86.7195 10.384C87.0075 10.176 87.3435 10.072 87.7275 10.072C87.7835 10.072 87.8435 10.076 87.9075 10.084C87.9715 10.084 88.0275 10.092 88.0755 10.108V11.428C87.9795 11.404 87.8955 11.388 87.8235 11.38C87.7595 11.372 87.6955 11.368 87.6315 11.368C87.3035 11.368 87.0395 11.428 86.8395 11.548C86.6395 11.668 86.4835 11.812 86.3715 11.98C86.2595 12.148 86.1835 12.32 86.1435 12.496C86.1035 12.672 86.0835 12.812 86.0835 12.916V16H84.6435V10.24Z" fill="black"/>
</svg>
